<svg height="512pt" viewBox="0 0 512 512" width="512pt" xmlns="http://www.w3.org/2000/svg"><path d="m512 256c0 141.386719-114.613281 256-256 256s-256-114.613281-256-256 114.613281-256 256-256 256 114.613281 256 256zm0 0" fill="#f15424"/><path d="m64 179.78125v245.546875c46.910156 53.152344 115.539062 86.671875 192 86.671875 52.53125 0 101.371094-15.828125 142-42.96875 18.511719-12.359375 35.320312-27.070312 50-43.703125v-368.546875c0-8.28125-6.71875-15-15-15h-231zm0 0" fill="#ffc640"/><path d="m187 179.78125h-123l138-138v123c0 8.285156-6.714844 15-15 15zm0 0" fill="#ffd55c"/><path d="m64 179.78125h123l-123 59.21875zm0 0" fill="#ffb733"/><g fill="#fff"><path d="m188.5 355.171875c0-.25.117188-.875.351562-1.871094l33.808594-110.070312c.703125-2.207031 2.421875-3.914063 5.164063-5.121094 2.738281-1.210937 5.863281-1.8125 9.363281-1.8125s6.648438.671875 9.449219 2.011719 4.550781 3.238281 5.25 5.6875l33.773437 110.074218c.234375.9375.351563 1.519532.351563 1.75 0 2.570313-1.574219 4.785157-4.726563 6.652344-3.148437 1.867188-6.359375 2.796875-9.625 2.796875-4.316406 0-6.886718-1.511719-7.699218-4.546875l-6.648438-23.277344h-37.496094l-6.519531 23.289063c-.921875 3.023437-3.8125 4.535156-8.675781 4.535156-3.808594 0-7.453125-.964843-10.917969-2.898437-3.46875-1.929688-5.203125-4.332032-5.203125-7.199219zm36.316406-35.574219h30.261719l-15.226563-53.726562zm0 0"/><path d="m300.75 358.097656v-113.75c0-2.335937 1.105469-4.085937 3.324219-5.25 2.214843-1.167968 4.898437-1.75 8.050781-1.75s5.832031.582032 8.050781 1.75c2.214844 1.164063 3.324219 2.914063 3.324219 5.25v113.75c0 2.214844-1.136719 3.964844-3.410156 5.25-2.277344 1.285156-4.933594 1.921875-7.964844 1.921875-3.148438 0-5.835938-.636719-8.050781-1.921875-2.214844-1.285156-3.324219-3.035156-3.324219-5.25zm0 0"/></g></svg>