<?xml version="1.0" encoding="utf-8"?>
<!-- Generator: Adobe Illustrator 24.2.3, SVG Export Plug-In . SVG Version: 6.00 Build 0)  -->
<svg version="1.1" id="Layer_1" xmlns="http://www.w3.org/2000/svg" xmlns:xlink="http://www.w3.org/1999/xlink" x="0px" y="0px"
	 viewBox="0 0 50.2 96.2" style="enable-background:new 0 0 50.2 96.2;" xml:space="preserve">
<style type="text/css">
	.st0{fill:#888888;}
</style>
<path class="st0" d="M31.8,77.9l-6.6,6.6l-6.6-6.6c-0.8-0.8-2-0.8-2.8,0c-0.8,0.8-0.8,2,0,2.8l8,8c0.4,0.4,0.9,0.6,1.4,0.6
	s1-0.2,1.4-0.6l8-8c0.8-0.8,0.8-2,0-2.8S32.6,77.1,31.8,77.9z"/>
<path class="st0" d="M34.6,66.9c-0.8-0.8-2-0.8-2.8,0l-6.6,6.6l-6.6-6.6c-0.8-0.8-2-0.8-2.8,0c-0.8,0.8-0.8,2,0,2.8l8,8
	c0.4,0.4,0.9,0.6,1.4,0.6s1-0.2,1.4-0.6l8-8C35.4,68.9,35.4,67.7,34.6,66.9z"/>
<path class="st0" d="M43.2,43.3v-18c0-9.9-8.1-18-18-18s-18,8.1-18,18v18c0,9.9,8.1,18,18,18S43.2,53.2,43.2,43.3z M25.2,57.3
	c-7.7,0-14-6.3-14-14v-18c0-7.7,6.3-14,14-14s14,6.3,14,14v18C39.2,51,32.9,57.3,25.2,57.3z"/>
<path class="st0" d="M25.2,18.3c-1.1,0-2,0.9-2,2v6c0,1.1,0.9,2,2,2s2-0.9,2-2v-6C27.2,19.2,26.3,18.3,25.2,18.3z"/>
</svg>
