<svg height="512pt" viewBox="0 0 512 512" width="512pt" xmlns="http://www.w3.org/2000/svg"><path d="m512 256c0 141.386719-114.613281 256-256 256s-256-114.613281-256-256 114.613281-256 256-256 256 114.613281 256 256zm0 0" fill="#3e4959"/><path d="m64 179.78125v245.546875c46.910156 53.152344 115.539062 86.671875 192 86.671875 52.53125 0 101.371094-15.828125 142-42.96875 18.511719-12.359375 35.320312-27.070312 50-43.703125v-368.546875c0-8.28125-6.71875-15-15-15h-231zm0 0" fill="#16c6cc"/><path d="m187 179.78125h-123l138-138v123c0 8.285156-6.714844 15-15 15zm0 0" fill="#21d8de"/><path d="m64 179.78125h123l-123 59.21875zm0 0" fill="#13adb2"/><g fill="#fff"><path d="m120.550781 357.21875v-113.75c0-1.863281.789063-3.5 2.363281-4.898438 1.574219-1.398437 3.644532-2.101562 6.214844-2.101562h35.171875c12.015625 0 21.640625 3.179688 28.875 9.539062 7.234375 6.359376 10.851563 16.304688 10.851563 29.835938v1.050781c0 13.652344-3.761719 23.683594-11.289063 30.101563-7.523437 6.414062-17.472656 9.625-29.835937 9.625h-19.601563v40.597656c0 2.21875-1.136719 3.96875-3.410156 5.25-2.277344 1.285156-4.929687 1.925781-7.964844 1.925781-3.148437 0-5.832031-.640625-8.046875-1.925781-2.21875-1.28125-3.328125-3.03125-3.328125-5.25zm22.75-58.449219h19.601563c5.832031 0 10.351562-1.691406 13.5625-5.074219 3.207031-3.382812 4.8125-8.398437 4.8125-15.050781v-2.097656c0-6.652344-1.601563-11.667969-4.8125-15.050781-3.210938-3.382813-7.730469-5.074219-13.5625-5.074219h-19.601563zm0 0"/><path d="m211.726562 344.269531c0-2.683593 1.019532-5.394531 3.0625-8.136719 2.039063-2.742187 4.34375-4.113281 6.910157-4.113281 1.515625 0 3.238281.726563 5.164062 2.183594 1.925781 1.453125 3.789063 3.0625 5.601563 4.816406 1.808594 1.757813 4.402344 3.363281 7.785156 4.820313 3.382812 1.453125 7.117188 2.179687 11.199219 2.179687 5.601562 0 10.265625-1.28125 14-3.847656s5.601562-6.359375 5.601562-11.375c0-3.5-1.023437-6.621094-3.0625-9.363281-2.042969-2.742188-4.726562-5.015625-8.050781-6.824219s-6.972656-3.558594-10.9375-5.25c-3.96875-1.691406-7.960938-3.589844-11.988281-5.6875-4.023438-2.101563-7.699219-4.464844-11.023438-7.089844s-6.011719-6.125-8.050781-10.5c-2.042969-4.375-3.0625-9.359375-3.0625-14.960937 0-6.273438 1.253906-11.8125 3.761719-16.609375 2.507812-4.796875 5.863281-8.523438 10.0625-11.1875 4.203125-2.664063 8.691406-4.621094 13.476562-5.863281 4.785157-1.242188 9.859375-1.863282 15.226563-1.863282 3.03125 0 6.238281.207032 9.625.628906 3.382812.417969 6.96875 1.109376 10.761718 2.066407 3.789063.960937 6.882813 2.457031 9.273438 4.492187s3.589844 4.433594 3.589844 7.1875c0 2.597656-.816406 5.285156-2.449219 8.0625-1.636719 2.773438-3.851563 4.160156-6.648437 4.160156-1.050782 0-3.910157-1.105468-8.578126-3.324218-4.667968-2.214844-9.859374-3.324219-15.574218-3.324219-6.300782 0-11.171875 1.195313-14.613282 3.585937-3.441406 2.394532-5.160156 5.6875-5.160156 9.886719 0 3.386719 1.398438 6.332031 4.199219 8.839844s6.269531 4.546875 10.414063 6.125c4.140624 1.574219 8.628906 3.558594 13.472656 5.949219 4.839844 2.390625 9.332031 4.988281 13.476562 7.789062 4.140625 2.796875 7.613282 6.851563 10.414063 12.160156 2.796875 5.3125 4.199219 11.523438 4.199219 18.636719 0 11.96875-3.824219 21.203125-11.464844 27.699219-7.640625 6.503906-17.703125 9.753906-30.1875 9.753906-11.085938 0-20.59375-2.277344-28.523438-6.828125-7.9375-4.550781-11.902344-9.507812-11.902344-14.875zm0 0"/><path d="m309.371094 357.394531v-113.925781c0-1.863281.933594-3.5 2.800781-4.898438 1.867187-1.398437 4.257813-2.101562 7.175781-2.101562h30.976563c12.480469 0 22.457031 3.210938 29.925781 9.625 7.464844 6.417969 11.199219 16.566406 11.199219 30.453125v47.773437c0 13.882813-3.734375 24.035157-11.199219 30.449219-7.46875 6.417969-17.441406 9.625-29.925781 9.625h-30.976563c-2.917968 0-5.308594-.699219-7.175781-2.097656-1.867187-1.402344-2.800781-3.035156-2.800781-4.902344zm22.75-12.949219h18.203125c12.25 0 18.375-6.707031 18.375-20.125v-47.773437c0-13.417969-6.125-20.125-18.375-20.125h-18.203125zm0 0"/></g></svg>