<?xml version="1.0" encoding="utf-8"?>
<!-- Generator: Adobe Illustrator 24.2.3, SVG Export Plug-In . SVG Version: 6.00 Build 0)  -->
<svg version="1.1" id="Layer_1" xmlns="http://www.w3.org/2000/svg" xmlns:xlink="http://www.w3.org/1999/xlink" x="0px" y="0px"
	 viewBox="0 0 47.1 45.5" style="enable-background:new 0 0 47.1 45.5;" xml:space="preserve">
<style type="text/css">
	.st0{fill:#000333;}
</style>
<path class="st0" d="M20.5,5H7.6C6.7,5,6.1,5.7,6.1,6.5v12.9c0,0.8,0.7,1.5,1.5,1.5h12.9c0.8,0,1.5-0.7,1.5-1.5V6.5
	C22,5.7,21.3,5,20.5,5z M19,18H9.1V8H19V18z M40.5,5H27.6c-0.8,0-1.5,0.7-1.5,1.5v12.9c0,0.8,0.7,1.5,1.5,1.5h12.9
	c0.8,0,1.5-0.7,1.5-1.5V6.5C42,5.7,41.3,5,40.5,5z M39,18h-9.9V8H39V18z M20.5,25H7.6c-0.8,0-1.5,0.7-1.5,1.5v12.9
	c0,0.8,0.7,1.5,1.5,1.5h12.9c0.8,0,1.5-0.7,1.5-1.5V26.5C22,25.7,21.3,25,20.5,25z M19,38H9.1V28H19V38z M40.5,25H27.6
	c-0.8,0-1.5,0.7-1.5,1.5v12.9c0,0.8,0.7,1.5,1.5,1.5h12.9c0.8,0,1.5-0.7,1.5-1.5V26.5C42,25.7,41.3,25,40.5,25z M39,38h-9.9V28H39
	V38z"/>
</svg>
